HIERARCHY
ROOT hip
{
	OFFSET 0.000000 0.000000 0.000000
	CHANNELS 6 Xposition Yposition Zposition Xrotation Zrotation Yrotation 
	JOINT abdomen
	{
		OFFSET 0.000000 3.422050 0.000000
		CHANNELS 3 Xrotation Zrotation Yrotation 
		JOINT chest
		{
			OFFSET 0.000000 8.486693 -0.684411
			CHANNELS 3 Xrotation Zrotation Yrotation 
			JOINT neck
			{
				OFFSET 0.000000 10.266162 -0.273764
				CHANNELS 3 Xrotation Zrotation Yrotation 
				JOINT head
				{
					OFFSET 0.000000 3.148285 0.000000
					CHANNELS 3 Xrotation Zrotation Yrotation 
					End Site
					{
						OFFSET 0.000000 3.148289 0.000000
					}
				}
			}
			JOINT lCollar
			{
				OFFSET 3.422053 6.707223 -0.821293
				CHANNELS 3 Yrotation Zrotation Xrotation 
				JOINT lShldr
				{
					OFFSET 3.285171 0.000000 0.000000
					CHANNELS 3 Zrotation Yrotation Xrotation 
					JOINT lForeArm
					{
						OFFSET 10.129278 0.000000 0.000000
						CHANNELS 3 Yrotation Zrotation Xrotation 
						JOINT lHand
						{
							OFFSET 8.486692 0.000000 0.000000
							CHANNELS 3 Zrotation Yrotation Xrotation 
							End Site
							{
								OFFSET 4.106464 0.000000 0.000000
							}
						}
					}
				}
			}
			JOINT rCollar
			{
				OFFSET -3.558935 6.707223 -0.821293
				CHANNELS 3 Yrotation Zrotation Xrotation 
				JOINT rShldr
				{
					OFFSET -3.148289 0.000000 0.000000
					CHANNELS 3 Zrotation Yrotation Xrotation 
					JOINT rForeArm
					{
						OFFSET -10.266159 0.000000 0.000000
						CHANNELS 3 Yrotation Zrotation Xrotation 
						JOINT rHand
						{
							OFFSET -8.349810 0.000000 0.000000
							CHANNELS 3 Zrotation Yrotation Xrotation 
							End Site
							{
								OFFSET -4.106464 0.000000 0.000000
							}
						}
					}
				}
			}
		}
	}
	JOINT lThigh
	{
		OFFSET 5.338403 -1.642589 1.368821
		CHANNELS 3 Xrotation Zrotation Yrotation 
		JOINT lShin
		{
			OFFSET -2.053232 -20.121670 0.000000
			CHANNELS 3 Xrotation Zrotation Yrotation 
			JOINT lFoot
			{
				OFFSET 0.000000 -19.300380 -1.231939
				CHANNELS 3 Xrotation Yrotation Zrotation 
				End Site
				{
					OFFSET 0.000000 -2.463878 4.653993
				}
			}
		}
	}
	JOINT rThigh
	{
		OFFSET -5.338403 -1.642589 1.368821
		CHANNELS 3 Xrotation Zrotation Yrotation 
		JOINT rShin
		{
			OFFSET 2.053232 -20.121670 0.000000
			CHANNELS 3 Xrotation Zrotation Yrotation 
			JOINT rFoot
			{
				OFFSET 0.000000 -19.300380 -1.231939
				CHANNELS 3 Xrotation Yrotation Zrotation 
				End Site
				{
					OFFSET 0.000000 -2.463878 4.653993
				}
			}
		}
	}
}
MOTION
Frames: 14
Frame Time: 0.033264
0.000000 43.528500 0.000000 0.000000 0.000000 0.000000 0.000000 0.000000 0.000000 0.000000 0.000000 0.000000 0.000000 0.000000 0.000000 0.000000 0.000000 0.000000 0.000000 0.000000 0.000000 0.000000 0.000000 0.000000 0.000000 0.000000 0.000000 0.000000 0.000000 0.000000 0.000000 0.000000 0.000000 0.000000 0.000000 0.000000 0.000000 0.000000 0.000000 0.000000 0.000000 0.000000 0.000000 0.000000 0.000000 0.000000 0.000000 0.000000 0.000000 0.000000 0.000000 0.000000 0.000000 0.000000 0.000000 0.000000 0.000000 0.000000 0.000000 0.000000 
0.000000 5.996777 27.997833 -94.004440 0.000000 0.000000 -7.364709 -0.061064 -0.050387 10.596223 -0.135641 -0.449842 25.997908 0.000000 0.000000 4.997208 0.000000 0.000000 -1.116136 -0.028758 -9.093997 39.656837 -71.894226 -41.727772 -30.820379 -3.673217 -30.762745 -14.739823 6.943568 -48.388145 1.112373 0.025549 -9.093958 -39.655308 71.889381 -41.723763 30.815866 3.670946 -30.761618 14.738114 -6.948145 -48.388664 -83.594490 35.366062 33.329510 -13.850288 -11.391484 -7.632358 19.117031 -14.601372 11.946044 -83.594360 -35.371513 -33.330376 -13.850791 11.387583 7.629210 19.116936 14.597339 -11.948896 
0.000000 5.996777 27.997833 -94.004433 0.000000 0.000000 -6.920599 -0.061058 -0.050424 10.929344 -0.135559 -0.449797 23.919256 0.000000 0.000000 2.812910 0.000000 0.000000 -0.083728 -0.409993 -9.793719 40.503506 -72.081886 -42.552345 -32.575912 -3.782573 -30.872789 -14.134884 7.649099 -48.643238 0.061817 0.411881 -9.789775 -40.496883 72.076149 -42.540733 32.573231 3.777085 -30.874737 14.130147 -7.640470 -48.648029 -84.072037 35.870613 33.164303 -12.662097 -10.826877 -7.874022 19.117031 -14.601372 11.946044 -84.073029 -35.877052 -33.165249 -12.660852 10.822915 7.871022 19.116936 14.597339 -11.948896 
0.000000 5.996777 27.997833 -94.004440 0.000000 0.000000 -6.476378 -0.061052 -0.050461 11.262507 -0.135477 -0.449752 21.829323 0.000000 0.000000 0.615482 0.000000 0.000000 0.946177 -0.804588 -10.487963 41.367584 -72.265694 -43.394329 -34.338604 -3.888913 -30.986595 -13.531359 8.358097 -48.891518 -0.986288 0.811749 -10.479916 -41.355667 72.259132 -43.374924 34.337765 3.880100 -30.991529 13.523608 -8.336294 -48.900688 -84.554688 36.374271 32.992710 -11.476077 -10.256300 -8.103755 19.117031 -14.601374 11.946045 -84.556824 -36.381691 -32.993721 -11.473080 10.252265 8.100883 19.116936 14.597341 -11.948897 
0.000000 5.996777 27.997833 -94.004448 0.000000 0.000000 -6.032066 -0.061046 -0.050498 11.595713 -0.135395 -0.449706 19.729429 0.000000 0.000000 -1.593562 0.000000 0.000000 1.973238 -1.212330 -11.176342 42.249336 -72.445602 -44.254005 -36.107666 -3.992049 -31.104040 -12.929177 9.070382 -49.132942 -2.031593 1.224933 -11.163987 -42.231865 72.438271 -44.226540 36.108677 3.979805 -31.111870 12.918435 -9.035445 -49.146595 -85.042633 36.876972 32.814629 -10.292335 -9.680134 -8.321437 19.117031 -14.601374 11.946045 -85.045937 -36.885380 -32.815674 -10.287580 9.676011 8.318674 19.116936 14.597339 -11.948896 
0.000000 5.996777 27.997833 -94.004440 0.000000 0.000000 -5.587674 -0.061039 -0.050535 11.928948 -0.135314 -0.449660 17.620913 0.000000 0.000000 -3.812661 0.000000 0.000000 2.997123 -1.632989 -11.858497 43.148819 -72.621445 -45.131413 -37.882271 -4.091798 -31.224985 -12.328264 9.785771 -49.367455 -3.073760 1.651196 -11.841619 -43.125591 72.613373 -45.095692 37.885143 4.076025 -31.235624 12.314555 -9.737739 -49.385696 -85.535950 37.378616 32.629910 -9.110958 -9.098763 -8.526968 19.117031 -14.601372 11.946044 -85.540436 -37.388000 -32.630959 -9.104441 9.094543 8.524296 19.116934 14.597337 -11.948895 
0.000000 5.996777 27.997833 -94.004440 0.000000 0.000000 -5.143215 -0.061032 -0.050572 12.262216 -0.135233 -0.449613 15.505158 0.000000 0.000000 -6.040211 0.000000 0.000000 4.017514 -2.066318 -12.534071 44.066196 -72.793121 -46.026722 -39.661606 -4.187994 -31.349295 -11.728545 10.504080 -49.595020 -4.112463 2.090281 -12.512450 -44.037071 72.784477 -45.982609 39.666325 4.168591 -31.362623 11.711901 -10.442997 -49.617958 -86.034836 37.879135 32.438408 -7.932029 -8.512573 -8.720249 19.117029 -14.601372 11.946044 -86.040543 -37.889503 -32.439449 -7.923752 8.508253 8.717654 19.116936 14.597339 -11.948896 
0.000000 5.996777 27.997833 -94.004440 0.000000 0.000000 -4.698700 -0.061025 -0.050608 12.595506 -0.135152 -0.449566 13.383574 0.000000 0.000000 -8.274566 0.000000 0.000000 5.034103 -2.512052 -13.202724 45.001495 -72.960442 -46.939968 -41.444801 -4.280464 -31.476801 -11.129932 11.225120 -49.815578 -5.147390 2.541914 -13.176124 -44.966187 72.951210 -46.887169 41.451378 4.257343 -31.492729 11.110394 -11.151036 -49.843327 -86.539406 38.378426 32.239986 -6.755632 -7.921972 -8.901210 19.117031 -14.601372 11.946044 -86.546333 -38.389771 -32.240978 -6.745588 7.917535 8.898665 19.116936 14.597339 -11.948896 
0.000000 5.996777 27.997833 -94.004440 0.000000 0.000000 -4.254148 -0.061017 -0.050645 12.928810 -0.135071 -0.449518 11.257602 0.000000 0.000000 -10.514051 0.000000 0.000000 6.046601 -2.969909 -13.864127 45.954826 -73.123352 -47.871250 -43.231007 -4.369063 -31.607336 -10.532349 11.948705 -50.029106 -6.178245 3.005803 -13.832309 -45.913097 73.113594 -47.809536 43.239441 4.342128 -31.625753 10.509950 -11.861667 -50.061729 -87.049812 38.876415 32.034508 -5.581834 -7.327359 -9.069785 19.117031 -14.601372 11.946044 -87.057991 -38.888733 -32.035419 -5.570025 7.322799 9.067272 19.116936 14.597339 -11.948896 
0.000000 5.996777 27.997833 -94.004433 0.000000 0.000000 -3.809568 -0.061010 -0.050682 13.262126 -0.134991 -0.449470 9.128694 0.000000 0.000000 -12.756977 0.000000 0.000000 7.054729 -3.439593 -14.517965 46.926132 -73.281670 -48.820518 -45.019360 -4.453638 -31.740726 -9.935704 12.674650 -50.235531 -7.204741 3.481640 -14.480674 -46.877800 73.271507 -48.749699 45.029621 4.422811 -31.761503 9.910494 -12.574712 -50.273155 -87.566208 39.373009 31.821812 -4.410697 -6.729138 -9.225921 19.117031 -14.601372 11.946044 -87.575653 -39.386303 -31.822620 -4.397124 6.724452 9.223422 19.116936 14.597339 -11.948896 
0.000000 5.996777 27.997833 -94.004448 0.000000 0.000000 -3.364975 -0.061002 -0.050719 13.595448 -0.134911 -0.449421 6.998314 0.000000 0.000000 -15.001619 0.000000 0.000000 8.058222 -3.920790 -15.163939 47.915390 -73.435265 -49.787743 -46.808971 -4.534061 -31.876783 -9.339907 13.402759 -50.434811 -8.226614 3.969105 -15.120922 -47.860271 73.424759 -49.707645 46.821060 4.499259 -31.899805 9.311943 -13.289988 -50.477547 -88.088722 39.868111 31.601749 -3.242282 -6.127722 -9.369579 19.117031 -14.601372 11.946045 -88.099495 -39.882378 -31.602415 -3.226942 6.122902 9.367069 19.116936 14.597339 -11.948896 
0.000000 5.996777 27.997833 -94.004440 0.000000 0.000000 -2.920382 -0.060993 -0.050755 13.928771 -0.134831 -0.449372 4.867932 0.000000 0.000000 -17.246264 0.000000 0.000000 9.056831 -4.413177 -15.801759 48.922539 -73.584015 -50.772869 -48.598969 -4.610207 -32.015305 -8.744864 14.132851 -50.626892 -9.243608 4.467860 -15.752756 -48.860443 73.573250 -50.683300 48.612869 4.571360 -32.040451 8.714200 -14.007298 -50.674831 -88.617569 40.361645 31.374163 -2.076638 -5.523524 -9.500733 19.117029 -14.601372 11.946043 -88.629654 -40.376862 -31.374649 -2.059533 5.518566 9.498192 19.116934 14.597339 -11.948895 
0.000000 5.996777 27.997833 -94.004440 0.000000 0.000000 -2.475801 -0.060985 -0.050792 14.262086 -0.134751 -0.449323 2.739025 0.000000 0.000000 -19.489182 0.000000 0.000000 10.050323 -4.916415 -16.431162 49.947483 -73.727798 -51.775803 -50.388470 -4.681969 -32.156094 -8.150476 14.864722 -50.811722 -10.255485 4.977554 -16.375896 -49.878189 73.716820 -51.676540 50.404133 4.639011 -32.183228 8.117184 -14.726465 -50.864986 -89.152870 40.853508 31.138901 -0.913814 -4.916958 -9.619369 19.117031 -14.601372 11.946044 -89.166321 -40.869698 -31.139194 -0.894947 4.911861 9.616776 19.116936 14.597339 -11.948895 
0.000000 5.996777 27.997833 -94.004440 0.000000 0.000000 -2.031248 -0.060976 -0.050828 14.595392 -0.134672 -0.449273 0.613052 0.000000 0.000000 -21.728672 0.000000 0.000000 11.038481 -5.430153 -17.051882 50.990044 -73.866470 -52.796356 -52.176571 -4.749249 -32.298931 -7.556648 15.598197 -50.989258 -11.262029 5.497827 -16.990082 -50.913380 73.855377 -52.687229 52.194000 4.702119 -32.327934 7.520793 -15.447298 -51.047932 -89.694809 41.343609 30.895790 0.246152 -4.308437 -9.725480 19.117031 -14.601372 11.946044 -89.709641 -41.360733 -30.895832 0.266778 4.303200 9.722816 19.116936 14.597339 -11.948896 
